<?xml version="1.0" encoding="UTF-8" standalone="no"?><svg xmlns="http://www.w3.org/2000/svg" xmlns:xlink="http://www.w3.org/1999/xlink" contentStyleType="text/css" height="339px" preserveAspectRatio="none" style="width:330px;height:339px;background:#FFFFFF;" version="1.1" viewBox="0 0 330 339" width="330px" zoomAndPan="magnify"><defs/><g><!--MD5=[3fd616f346a44cd59a91eb10b19e157c]
class User--><g id="elem_User"><rect codeLine="1" fill="#F1F1F1" height="113.1875" id="User" rx="2.5" ry="2.5" style="stroke:#181818;stroke-width:0.5;" width="127" x="53.1552" y="219"/><ellipse cx="96.9552" cy="235" fill="#ADD1B2" rx="11" ry="11" style="stroke:#181818;stroke-width:1.0;"/><path d="M95.7521,235.875 L97.2052,235.875 L97.2052,235.9844 C97.2052,236.3906 97.2365,236.5469 97.3146,236.7031 C97.4708,236.9531 97.7521,237.1094 98.049,237.1094 C98.299,237.1094 98.5646,236.9688 98.7208,236.75 C98.8458,236.5938 98.8771,236.4375 98.8771,235.9844 L98.8771,234.0625 C98.8771,233.9063 98.8771,233.8594 98.8615,233.7031 C98.799,233.2344 98.4865,232.9219 98.0333,232.9219 C97.7833,232.9219 97.5177,233.0625 97.3458,233.2813 C97.2365,233.4531 97.2052,233.6094 97.2052,234.0625 L97.2052,234.1875 L95.7521,234.1875 L95.7521,231.7813 L99.7365,231.7813 L99.7365,232.6406 C99.7365,233.0469 99.7677,233.2188 99.8458,233.375 C100.0177,233.625 100.299,233.7813 100.5802,233.7813 C100.8458,233.7813 101.1115,233.6406 101.2833,233.4219 C101.3927,233.25 101.424,233.1094 101.424,232.6406 L101.424,230.0938 L93.799,230.0938 C93.3615,230.0938 93.2365,230.1094 93.0802,230.2031 C92.8302,230.3594 92.674,230.6563 92.674,230.9375 C92.674,231.2188 92.8146,231.4688 93.0333,231.6406 C93.1896,231.75 93.3771,231.7813 93.799,231.7813 L94.049,231.7813 L94.049,238.2969 L93.799,238.2969 C93.3927,238.2969 93.2365,238.3125 93.0802,238.4219 C92.8302,238.5938 92.674,238.8594 92.674,239.1563 C92.674,239.4219 92.8146,239.6719 93.0333,239.8281 C93.174,239.9531 93.4083,240 93.799,240 L101.799,240 L101.799,237.4219 C101.799,236.9844 101.7677,236.8438 101.6896,236.6875 C101.5177,236.4375 101.2365,236.2813 100.9552,236.2813 C100.6896,236.2813 100.424,236.3906 100.2521,236.6406 C100.1427,236.7969 100.1115,236.9375 100.1115,237.4219 L100.1115,238.2969 L95.7521,238.2969 L95.7521,235.875 Z " fill="#000000"/><text fill="#000000" font-family="sans-serif" font-size="14" lengthAdjust="spacing" textLength="31" x="117.3552" y="239.8467">User</text><line style="stroke:#181818;stroke-width:0.5;" x1="54.1552" x2="179.1552" y1="251" y2="251"/><text fill="#000000" font-family="sans-serif" font-size="14" lengthAdjust="spacing" textLength="110" x="59.1552" y="267.9951">username: text</text><line style="stroke:#181818;stroke-width:1.0;" x1="54.1552" x2="179.1552" y1="275.2969" y2="275.2969"/><ellipse cx="64.1552" cy="288.9453" fill="#000000" rx="3" ry="3" style="stroke:#000000;stroke-width:1.0;"/><text fill="#000000" font-family="sans-serif" font-size="14" lengthAdjust="spacing" textLength="80" x="73.1552" y="292.292">name: text</text><ellipse cx="64.1552" cy="305.2422" fill="#000000" rx="3" ry="3" style="stroke:#000000;stroke-width:1.0;"/><text fill="#000000" font-family="sans-serif" font-size="14" lengthAdjust="spacing" textLength="101" x="73.1552" y="308.5889">surname: text</text><ellipse cx="64.1552" cy="321.5391" fill="#000000" rx="3" ry="3" style="stroke:#000000;stroke-width:1.0;"/><text fill="#000000" font-family="sans-serif" font-size="14" lengthAdjust="spacing" textLength="90" x="73.1552" y="324.8857">email: string</text></g><!--MD5=[b34797a66dc35cbf1d65f7e3ca75530e]
class Task--><g id="elem_Task"><rect codeLine="9" fill="#F1F1F1" height="145.7813" id="Task" rx="2.5" ry="2.5" style="stroke:#181818;stroke-width:0.5;" width="156" x="39.6552" y="7"/><ellipse cx="96.9052" cy="23" fill="#ADD1B2" rx="11" ry="11" style="stroke:#181818;stroke-width:1.0;"/><path d="M95.7021,23.875 L97.1552,23.875 L97.1552,23.9844 C97.1552,24.3906 97.1865,24.5469 97.2646,24.7031 C97.4208,24.9531 97.7021,25.1094 97.999,25.1094 C98.249,25.1094 98.5146,24.9688 98.6708,24.75 C98.7958,24.5938 98.8271,24.4375 98.8271,23.9844 L98.8271,22.0625 C98.8271,21.9063 98.8271,21.8594 98.8115,21.7031 C98.749,21.2344 98.4365,20.9219 97.9833,20.9219 C97.7333,20.9219 97.4677,21.0625 97.2958,21.2813 C97.1865,21.4531 97.1552,21.6094 97.1552,22.0625 L97.1552,22.1875 L95.7021,22.1875 L95.7021,19.7813 L99.6865,19.7813 L99.6865,20.6406 C99.6865,21.0469 99.7177,21.2188 99.7958,21.375 C99.9677,21.625 100.249,21.7813 100.5302,21.7813 C100.7958,21.7813 101.0615,21.6406 101.2333,21.4219 C101.3427,21.25 101.374,21.1094 101.374,20.6406 L101.374,18.0938 L93.749,18.0938 C93.3115,18.0938 93.1865,18.1094 93.0302,18.2031 C92.7802,18.3594 92.624,18.6563 92.624,18.9375 C92.624,19.2188 92.7646,19.4688 92.9833,19.6406 C93.1396,19.75 93.3271,19.7813 93.749,19.7813 L93.999,19.7813 L93.999,26.2969 L93.749,26.2969 C93.3427,26.2969 93.1865,26.3125 93.0302,26.4219 C92.7802,26.5938 92.624,26.8594 92.624,27.1563 C92.624,27.4219 92.7646,27.6719 92.9833,27.8281 C93.124,27.9531 93.3583,28 93.749,28 L101.749,28 L101.749,25.4219 C101.749,24.9844 101.7177,24.8438 101.6396,24.6875 C101.4677,24.4375 101.1865,24.2813 100.9052,24.2813 C100.6396,24.2813 100.374,24.3906 100.2021,24.6406 C100.0927,24.7969 100.0615,24.9375 100.0615,25.4219 L100.0615,26.2969 L95.7021,26.2969 L95.7021,23.875 Z " fill="#000000"/><text fill="#000000" font-family="sans-serif" font-size="14" lengthAdjust="spacing" textLength="33" x="117.4052" y="27.8467">Task</text><line style="stroke:#181818;stroke-width:0.5;" x1="40.6552" x2="194.6552" y1="39" y2="39"/><text fill="#000000" font-family="sans-serif" font-size="14" lengthAdjust="spacing" textLength="144" x="45.6552" y="55.9951">id: UUID (generated)</text><line style="stroke:#181818;stroke-width:1.0;" x1="40.6552" x2="194.6552" y1="63.2969" y2="63.2969"/><ellipse cx="50.6552" cy="76.9453" fill="#000000" rx="3" ry="3" style="stroke:#000000;stroke-width:1.0;"/><text fill="#000000" font-family="sans-serif" font-size="14" lengthAdjust="spacing" textLength="87" x="59.6552" y="80.292">author: User</text><text fill="#000000" font-family="sans-serif" font-size="14" lengthAdjust="spacing" textLength="102" x="59.6552" y="96.5889">assignee: User</text><ellipse cx="50.6552" cy="109.5391" fill="#000000" rx="3" ry="3" style="stroke:#000000;stroke-width:1.0;"/><text fill="#000000" font-family="sans-serif" font-size="14" lengthAdjust="spacing" textLength="71" x="59.6552" y="112.8857">title: text</text><text fill="#000000" font-family="sans-serif" font-size="14" lengthAdjust="spacing" textLength="122" x="59.6552" y="129.1826">description: text</text><ellipse cx="50.6552" cy="142.1328" fill="#000000" rx="3" ry="3" style="stroke:#000000;stroke-width:1.0;"/><text fill="#000000" font-family="sans-serif" font-size="14" lengthAdjust="spacing" textLength="99" x="59.6552" y="145.4795">status: Status</text></g><!--MD5=[e3d83ec5fd90ea9f3f2bfe265cb53458]
class Status--><g id="elem_Status"><rect codeLine="19" fill="#F1F1F1" height="96.8906" id="Status" rx="2.5" ry="2.5" style="stroke:#181818;stroke-width:0.5;" width="100" x="223.6554" y="226.5"/><ellipse cx="248.5554" cy="242.5" fill="#EB937F" rx="11" ry="11" style="stroke:#181818;stroke-width:1.0;"/><path d="M247.3523,243.375 L248.8054,243.375 L248.8054,243.4844 C248.8054,243.8906 248.8367,244.0469 248.9148,244.2031 C249.071,244.4531 249.3523,244.6094 249.6492,244.6094 C249.8992,244.6094 250.1648,244.4688 250.321,244.25 C250.446,244.0938 250.4773,243.9375 250.4773,243.4844 L250.4773,241.5625 C250.4773,241.4063 250.4773,241.3594 250.4617,241.2031 C250.3992,240.7344 250.0867,240.4219 249.6335,240.4219 C249.3835,240.4219 249.1179,240.5625 248.946,240.7813 C248.8367,240.9531 248.8054,241.1094 248.8054,241.5625 L248.8054,241.6875 L247.3523,241.6875 L247.3523,239.2813 L251.3367,239.2813 L251.3367,240.1406 C251.3367,240.5469 251.3679,240.7188 251.446,240.875 C251.6179,241.125 251.8992,241.2813 252.1804,241.2813 C252.446,241.2813 252.7117,241.1406 252.8835,240.9219 C252.9929,240.75 253.0242,240.6094 253.0242,240.1406 L253.0242,237.5938 L245.3992,237.5938 C244.9617,237.5938 244.8367,237.6094 244.6804,237.7031 C244.4304,237.8594 244.2742,238.1563 244.2742,238.4375 C244.2742,238.7188 244.4148,238.9688 244.6335,239.1406 C244.7898,239.25 244.9773,239.2813 245.3992,239.2813 L245.6492,239.2813 L245.6492,245.7969 L245.3992,245.7969 C244.9929,245.7969 244.8367,245.8125 244.6804,245.9219 C244.4304,246.0938 244.2742,246.3594 244.2742,246.6563 C244.2742,246.9219 244.4148,247.1719 244.6335,247.3281 C244.7742,247.4531 245.0085,247.5 245.3992,247.5 L253.3992,247.5 L253.3992,244.9219 C253.3992,244.4844 253.3679,244.3438 253.2898,244.1875 C253.1179,243.9375 252.8367,243.7813 252.5554,243.7813 C252.2898,243.7813 252.0242,243.8906 251.8523,244.1406 C251.7429,244.2969 251.7117,244.4375 251.7117,244.9219 L251.7117,245.7969 L247.3523,245.7969 L247.3523,243.375 Z " fill="#000000"/><text fill="#000000" font-family="sans-serif" font-size="14" lengthAdjust="spacing" textLength="46" x="264.7554" y="247.3467">Status</text><line style="stroke:#181818;stroke-width:0.5;" x1="224.6554" x2="322.6554" y1="258.5" y2="258.5"/><text fill="#000000" font-family="sans-serif" font-size="14" lengthAdjust="spacing" textLength="42" x="229.6554" y="275.4951">TODO</text><text fill="#000000" font-family="sans-serif" font-size="14" lengthAdjust="spacing" textLength="88" x="229.6554" y="291.792">IN_PROCESS</text><text fill="#000000" font-family="sans-serif" font-size="14" lengthAdjust="spacing" textLength="41" x="229.6554" y="308.0889">DONE</text><line style="stroke:#181818;stroke-width:0.5;" x1="224.6554" x2="322.6554" y1="315.3906" y2="315.3906"/></g><!--MD5=[59f436a63fd120c4f40f9b73b6fc58b5]
link Task to User--><g id="link_Task_User"><path codeLine="25" d="M30.6157,76.073 C6,83.519 21.5589,128.001 39.6552,155 C77.5734,211.572 142.5014,158.586 180.6554,215 C190.7414,229.913 199.7094,253.8323 189.4494,260.9429 " fill="none" id="Task-User" style="stroke:#181818;stroke-width:1.0;stroke-dasharray:7.0,7.0;"/><line style="stroke:#181818;stroke-width:1.0;" x1="186.5437" x2="184.5023" y1="265.8469" y2="258.1117"/><line style="stroke:#181818;stroke-width:1.0;" x1="189.4444" x2="187.4029" y1="265.0813" y2="257.3462"/><line style="stroke:#181818;stroke-width:1.0;" x1="189.3906" x2="181.6554" y1="260.9586" y2="263"/><line style="stroke:#181818;stroke-width:1.0;" x1="30.7255" x2="37.8616" y1="76.0581" y2="69.0527"/><line style="stroke:#181818;stroke-width:1.0;" x1="30.7255" x2="39.4488" y1="76.0581" y2="80.9473"/><line style="stroke:#181818;stroke-width:1.0;" x1="30.7255" x2="38.6552" y1="76.0581" y2="75"/><ellipse cx="24.7782" cy="76.8517" fill="none" rx="4" ry="4" style="stroke:#181818;stroke-width:1.0;"/></g><!--MD5=[59f436a63fd120c4f40f9b73b6fc58b5]
link Task to User--><g id="link_Task_User"><path codeLine="26" d="M30.3212,92.572 C13.4199,100.237 25.6399,134.16 39.6552,155 C77.6618,211.513 142.5014,158.586 180.6554,215 C190.7414,229.913 199.7094,253.8323 189.4494,260.9429 " fill="none" id="Task-User-1" style="stroke:#181818;stroke-width:1.0;stroke-dasharray:7.0,7.0;"/><line style="stroke:#181818;stroke-width:1.0;" x1="192.2912" x2="181.6554" y1="260.193" y2="263"/><ellipse cx="192.2912" cy="260.193" fill="none" rx="4" ry="4" style="stroke:#181818;stroke-width:1.0;"/><line style="stroke:#181818;stroke-width:1.0;" x1="186.5437" x2="184.5023" y1="265.8469" y2="258.1117"/><line style="stroke:#181818;stroke-width:1.0;" x1="30.7939" x2="37.543" y1="92.483" y2="85.104"/><line style="stroke:#181818;stroke-width:1.0;" x1="30.7939" x2="39.7674" y1="92.483" y2="96.896"/><line style="stroke:#181818;stroke-width:1.0;" x1="30.7939" x2="38.6552" y1="92.483" y2="91"/><ellipse cx="24.8978" cy="93.5952" fill="none" rx="4" ry="4" style="stroke:#181818;stroke-width:1.0;"/></g><!--MD5=[741e743dc7d119eb774e69cf6e5f2530]
link Task to Status--><g id="link_Task_Status"><path codeLine="27" d="M205.0694,139.7 C238.1044,145.327 255.4524,183.877 264.4264,218.24 " fill="none" id="Task-Status" style="stroke:#181818;stroke-width:1.0;"/><line style="stroke:#181818;stroke-width:1.0;" x1="269.3603" x2="261.5902" y1="221.5668" y2="223.4711"/><line style="stroke:#181818;stroke-width:1.0;" x1="268.6462" x2="260.8761" y1="218.6531" y2="220.5574"/><line style="stroke:#181818;stroke-width:1.0;" x1="264.5231" x2="266.4274" y1="218.634" y2="226.404"/><line style="stroke:#181818;stroke-width:1.0;" x1="204.6279" x2="196.1582" y1="139.6629" y2="144.9794"/><line style="stroke:#181818;stroke-width:1.0;" x1="204.6279" x2="197.1526" y1="139.6629" y2="133.0206"/><line style="stroke:#181818;stroke-width:1.0;" x1="204.6279" x2="196.6554" y1="139.6629" y2="139"/><ellipse cx="210.6072" cy="140.1602" fill="none" rx="4" ry="4" style="stroke:#181818;stroke-width:1.0;"/></g><!--MD5=[d2d0bb30ce8c4adebf42973720bd066c]
@startuml
entity User {
    username: text
    - -
    * name: text
    * surname: text
    * email: string
}

entity Task {
    id: UUID (generated)
    - -
    *author: User
    assignee: User
    *title: text
    description: text
    *status: Status
}

enum Status {
    TODO
    IN_PROCESS
    DONE
}

Task::author }o..|| User::username
Task::assignee }o..o| User::username
Task::status }o- -|| Status
@enduml

PlantUML version 1.2022.9(Tue Sep 27 16:10:06 UTC 2022)
(GPL source distribution)
Java Runtime: Java(TM) SE Runtime Environment
JVM: Java HotSpot(TM) 64-Bit Server VM
Default Encoding: UTF-8
Language: en
Country: US
--></g></svg>