<?xml version="1.0" encoding="UTF-8" standalone="no"?><svg xmlns="http://www.w3.org/2000/svg" xmlns:xlink="http://www.w3.org/1999/xlink" contentScriptType="application/ecmascript" contentStyleType="text/css" height="309px" preserveAspectRatio="none" style="width:268px;height:309px;background:#FFFFFF;" version="1.1" viewBox="0 0 268 309" width="268px" zoomAndPan="magnify"><defs><filter height="300%" id="fy6yf6wjikfa3" width="300%" x="-1" y="-1"><feGaussianBlur result="blurOut" stdDeviation="2.0"/><feColorMatrix in="blurOut" result="blurOut2" type="matrix" values="0 0 0 0 0 0 0 0 0 0 0 0 0 0 0 0 0 0 .4 0"/><feOffset dx="4.0" dy="4.0" in="blurOut2" result="blurOut3"/><feBlend in="SourceGraphic" in2="blurOut3" mode="normal"/></filter></defs><g><!--MD5=[3fd616f346a44cd59a91eb10b19e157c]
class User--><rect codeLine="1" fill="#FEFECE" filter="url(#fy6yf6wjikfa3)" height="99.2188" id="User" style="stroke:#A80036;stroke-width:1.5;" width="106" x="23.7986" y="196"/><ellipse cx="59.0486" cy="212" fill="#ADD1B2" rx="11" ry="11" style="stroke:#A80036;stroke-width:1.0;"/><path d="M57.8455,212.875 L59.2986,212.875 L59.2986,212.9844 C59.2986,213.3906 59.3299,213.5469 59.408,213.7031 C59.5643,213.9531 59.8455,214.1094 60.1424,214.1094 C60.3924,214.1094 60.658,213.9688 60.8143,213.75 C60.9393,213.5938 60.9705,213.4375 60.9705,212.9844 L60.9705,211.0625 C60.9705,210.9063 60.9705,210.8594 60.9549,210.7031 C60.8924,210.2344 60.5799,209.9219 60.1268,209.9219 C59.8768,209.9219 59.6111,210.0625 59.4393,210.2813 C59.3299,210.4531 59.2986,210.6094 59.2986,211.0625 L59.2986,211.1875 L57.8455,211.1875 L57.8455,208.7813 L61.8299,208.7813 L61.8299,209.6406 C61.8299,210.0469 61.8611,210.2188 61.9393,210.375 C62.1111,210.625 62.3924,210.7813 62.6736,210.7813 C62.9393,210.7813 63.2049,210.6406 63.3768,210.4219 C63.4861,210.25 63.5174,210.1094 63.5174,209.6406 L63.5174,207.0938 L55.8924,207.0938 C55.4549,207.0938 55.3299,207.1094 55.1736,207.2031 C54.9236,207.3594 54.7674,207.6563 54.7674,207.9375 C54.7674,208.2188 54.908,208.4688 55.1268,208.6406 C55.283,208.75 55.4705,208.7813 55.8924,208.7813 L56.1424,208.7813 L56.1424,215.2969 L55.8924,215.2969 C55.4861,215.2969 55.3299,215.3125 55.1736,215.4219 C54.9236,215.5938 54.7674,215.8594 54.7674,216.1563 C54.7674,216.4219 54.908,216.6719 55.1268,216.8281 C55.2674,216.9531 55.5018,217 55.8924,217 L63.8924,217 L63.8924,214.4219 C63.8924,213.9844 63.8611,213.8438 63.783,213.6875 C63.6111,213.4375 63.3299,213.2813 63.0486,213.2813 C62.783,213.2813 62.5174,213.3906 62.3455,213.6406 C62.2361,213.7969 62.2049,213.9375 62.2049,214.4219 L62.2049,215.2969 L57.8455,215.2969 L57.8455,212.875 Z " fill="#000000"/><text fill="#000000" font-family="sans-serif" font-size="12" lengthAdjust="spacing" textLength="29" x="77.5486" y="216.1543">User</text><line style="stroke:#A80036;stroke-width:1.5;" x1="24.7986" x2="128.7986" y1="228" y2="228"/><text fill="#000000" font-family="sans-serif" font-size="11" lengthAdjust="spacing" textLength="88" x="29.7986" y="242.2104">username: text</text><line style="stroke:#A80036;stroke-width:1.0;" x1="24.7986" x2="128.7986" y1="248.8047" y2="248.8047"/><ellipse cx="34.7986" cy="259.8047" fill="#000000" rx="3" ry="3" style="stroke:#000000;stroke-width:1.0;"/><text fill="#000000" font-family="sans-serif" font-size="11" lengthAdjust="spacing" textLength="63" x="43.7986" y="263.0151">name: text</text><ellipse cx="34.7986" cy="272.6094" fill="#000000" rx="3" ry="3" style="stroke:#000000;stroke-width:1.0;"/><text fill="#000000" font-family="sans-serif" font-size="11" lengthAdjust="spacing" textLength="80" x="43.7986" y="275.8198">surname: text</text><ellipse cx="34.7986" cy="285.4141" fill="#000000" rx="3" ry="3" style="stroke:#000000;stroke-width:1.0;"/><text fill="#000000" font-family="sans-serif" font-size="11" lengthAdjust="spacing" textLength="70" x="43.7986" y="288.6245">email: string</text><!--MD5=[b34797a66dc35cbf1d65f7e3ca75530e]
class Task--><rect codeLine="9" fill="#FEFECE" filter="url(#fy6yf6wjikfa3)" height="124.8281" id="Task" style="stroke:#A80036;stroke-width:1.5;" width="129" x="11.2986" y="7"/><ellipse cx="57.5486" cy="23" fill="#ADD1B2" rx="11" ry="11" style="stroke:#A80036;stroke-width:1.0;"/><path d="M56.3455,23.875 L57.7986,23.875 L57.7986,23.9844 C57.7986,24.3906 57.8299,24.5469 57.908,24.7031 C58.0643,24.9531 58.3455,25.1094 58.6424,25.1094 C58.8924,25.1094 59.158,24.9688 59.3143,24.75 C59.4393,24.5938 59.4705,24.4375 59.4705,23.9844 L59.4705,22.0625 C59.4705,21.9063 59.4705,21.8594 59.4549,21.7031 C59.3924,21.2344 59.0799,20.9219 58.6268,20.9219 C58.3768,20.9219 58.1111,21.0625 57.9393,21.2813 C57.8299,21.4531 57.7986,21.6094 57.7986,22.0625 L57.7986,22.1875 L56.3455,22.1875 L56.3455,19.7813 L60.3299,19.7813 L60.3299,20.6406 C60.3299,21.0469 60.3611,21.2188 60.4393,21.375 C60.6111,21.625 60.8924,21.7813 61.1736,21.7813 C61.4393,21.7813 61.7049,21.6406 61.8768,21.4219 C61.9861,21.25 62.0174,21.1094 62.0174,20.6406 L62.0174,18.0938 L54.3924,18.0938 C53.9549,18.0938 53.8299,18.1094 53.6736,18.2031 C53.4236,18.3594 53.2674,18.6563 53.2674,18.9375 C53.2674,19.2188 53.408,19.4688 53.6268,19.6406 C53.783,19.75 53.9705,19.7813 54.3924,19.7813 L54.6424,19.7813 L54.6424,26.2969 L54.3924,26.2969 C53.9861,26.2969 53.8299,26.3125 53.6736,26.4219 C53.4236,26.5938 53.2674,26.8594 53.2674,27.1563 C53.2674,27.4219 53.408,27.6719 53.6268,27.8281 C53.7674,27.9531 54.0018,28 54.3924,28 L62.3924,28 L62.3924,25.4219 C62.3924,24.9844 62.3611,24.8438 62.283,24.6875 C62.1111,24.4375 61.8299,24.2813 61.5486,24.2813 C61.283,24.2813 61.0174,24.3906 60.8455,24.6406 C60.7361,24.7969 60.7049,24.9375 60.7049,25.4219 L60.7049,26.2969 L56.3455,26.2969 L56.3455,23.875 Z " fill="#000000"/><text fill="#000000" font-family="sans-serif" font-size="12" lengthAdjust="spacing" textLength="28" x="78.0486" y="27.1543">Task</text><line style="stroke:#A80036;stroke-width:1.5;" x1="12.2986" x2="139.2986" y1="39" y2="39"/><text fill="#000000" font-family="sans-serif" font-size="11" lengthAdjust="spacing" textLength="117" x="17.2986" y="53.2104">id: UUID (generated)</text><line style="stroke:#A80036;stroke-width:1.0;" x1="12.2986" x2="139.2986" y1="59.8047" y2="59.8047"/><ellipse cx="22.2986" cy="70.8047" fill="#000000" rx="3" ry="3" style="stroke:#000000;stroke-width:1.0;"/><text fill="#000000" font-family="sans-serif" font-size="11" lengthAdjust="spacing" textLength="69" x="31.2986" y="74.0151">author: User</text><text fill="#000000" font-family="sans-serif" font-size="11" lengthAdjust="spacing" textLength="85" x="31.2986" y="86.8198">assignee: User</text><ellipse cx="22.2986" cy="96.4141" fill="#000000" rx="3" ry="3" style="stroke:#000000;stroke-width:1.0;"/><text fill="#000000" font-family="sans-serif" font-size="11" lengthAdjust="spacing" textLength="52" x="31.2986" y="99.6245">title: text</text><text fill="#000000" font-family="sans-serif" font-size="11" lengthAdjust="spacing" textLength="92" x="31.2986" y="112.4292">description: text</text><ellipse cx="22.2986" cy="122.0234" fill="#000000" rx="3" ry="3" style="stroke:#000000;stroke-width:1.0;"/><text fill="#000000" font-family="sans-serif" font-size="11" lengthAdjust="spacing" textLength="77" x="31.2986" y="125.2339">status: Status</text><!--MD5=[e3d83ec5fd90ea9f3f2bfe265cb53458]
class Status--><rect codeLine="19" fill="#FEFECE" filter="url(#fy6yf6wjikfa3)" height="86.4141" id="Status" style="stroke:#A80036;stroke-width:1.5;" width="82" x="172.7986" y="202"/><ellipse cx="193.6486" cy="218" fill="#EB937F" rx="11" ry="11" style="stroke:#A80036;stroke-width:1.0;"/><path d="M192.4455,218.875 L193.8986,218.875 L193.8986,218.9844 C193.8986,219.3906 193.9299,219.5469 194.008,219.7031 C194.1643,219.9531 194.4455,220.1094 194.7424,220.1094 C194.9924,220.1094 195.258,219.9688 195.4143,219.75 C195.5393,219.5938 195.5705,219.4375 195.5705,218.9844 L195.5705,217.0625 C195.5705,216.9063 195.5705,216.8594 195.5549,216.7031 C195.4924,216.2344 195.1799,215.9219 194.7268,215.9219 C194.4768,215.9219 194.2111,216.0625 194.0393,216.2813 C193.9299,216.4531 193.8986,216.6094 193.8986,217.0625 L193.8986,217.1875 L192.4455,217.1875 L192.4455,214.7813 L196.4299,214.7813 L196.4299,215.6406 C196.4299,216.0469 196.4611,216.2188 196.5393,216.375 C196.7111,216.625 196.9924,216.7813 197.2736,216.7813 C197.5393,216.7813 197.8049,216.6406 197.9768,216.4219 C198.0861,216.25 198.1174,216.1094 198.1174,215.6406 L198.1174,213.0938 L190.4924,213.0938 C190.0549,213.0938 189.9299,213.1094 189.7736,213.2031 C189.5236,213.3594 189.3674,213.6563 189.3674,213.9375 C189.3674,214.2188 189.508,214.4688 189.7268,214.6406 C189.883,214.75 190.0705,214.7813 190.4924,214.7813 L190.7424,214.7813 L190.7424,221.2969 L190.4924,221.2969 C190.0861,221.2969 189.9299,221.3125 189.7736,221.4219 C189.5236,221.5938 189.3674,221.8594 189.3674,222.1563 C189.3674,222.4219 189.508,222.6719 189.7268,222.8281 C189.8674,222.9531 190.1018,223 190.4924,223 L198.4924,223 L198.4924,220.4219 C198.4924,219.9844 198.4611,219.8438 198.383,219.6875 C198.2111,219.4375 197.9299,219.2813 197.6486,219.2813 C197.383,219.2813 197.1174,219.3906 196.9455,219.6406 C196.8361,219.7969 196.8049,219.9375 196.8049,220.4219 L196.8049,221.2969 L192.4455,221.2969 L192.4455,218.875 Z " fill="#000000"/><text fill="#000000" font-family="sans-serif" font-size="12" lengthAdjust="spacing" textLength="37" x="208.9486" y="222.1543">Status</text><line style="stroke:#A80036;stroke-width:1.5;" x1="173.7986" x2="253.7986" y1="234" y2="234"/><text fill="#000000" font-family="sans-serif" font-size="11" lengthAdjust="spacing" textLength="34" x="178.7986" y="248.2104">TODO</text><text fill="#000000" font-family="sans-serif" font-size="11" lengthAdjust="spacing" textLength="70" x="178.7986" y="261.0151">IN_PROCESS</text><text fill="#000000" font-family="sans-serif" font-size="11" lengthAdjust="spacing" textLength="33" x="178.7986" y="273.8198">DONE</text><line style="stroke:#A80036;stroke-width:1.5;" x1="173.7986" x2="253.7986" y1="280.4141" y2="280.4141"/><!--MD5=[59f436a63fd120c4f40f9b73b6fc58b5]
link Task to User--><path codeLine="25" d="M149.9066,71.016 C166.2656,78.409 153.7526,111.175 140.7986,132 C109.9316,181.622 54.8079,142.467 23.7986,192 C14.8127,206.3538 6,228.4805 14.8496,235.6625 " fill="none" id="Task-User" style="stroke:#A80036;stroke-width:1.0;stroke-dasharray:7.0,7.0;"/><line style="stroke:#A80036;stroke-width:1.0;" x1="20.0896" x2="17.8326" y1="233.034" y2="240.709"/><line style="stroke:#A80036;stroke-width:1.0;" x1="17.2115" x2="14.9545" y1="232.1876" y2="239.8626"/><line style="stroke:#A80036;stroke-width:1.0;" x1="15.1236" x2="22.7986" y1="235.743" y2="238"/><line style="stroke:#A80036;stroke-width:1.0;" x1="149.6624" x2="140.6962" y1="70.9699" y2="75.3979"/><line style="stroke:#A80036;stroke-width:1.0;" x1="149.6624" x2="142.9011" y1="70.9699" y2="63.6021"/><line style="stroke:#A80036;stroke-width:1.0;" x1="149.6624" x2="141.7986" y1="70.9699" y2="69.5"/><ellipse cx="155.5603" cy="72.0723" rx="4" ry="4" style="stroke:#A80036;stroke-width:1.0;fill:none;"/><!--MD5=[59f436a63fd120c4f40f9b73b6fc58b5]
link Task to User--><path codeLine="26" d="M149.6576,83.436 C160.8096,90.566 150.9266,115.787 140.7986,132 C109.8376,181.563 54.8079,142.467 23.7986,192 C14.8127,206.3538 6,228.4805 14.8496,235.6625 " fill="none" id="Task-User-1" style="stroke:#A80036;stroke-width:1.0;stroke-dasharray:7.0,7.0;"/><line style="stroke:#A80036;stroke-width:1.0;" x1="12.2455" x2="22.7986" y1="234.8966" y2="238"/><ellipse cx="12.2455" cy="234.8966" rx="4" ry="4" style="stroke:#A80036;stroke-width:1.0;fill:none;"/><line style="stroke:#A80036;stroke-width:1.0;fill:none;" x1="20.0896" x2="17.8326" y1="233.034" y2="240.709"/><line style="stroke:#A80036;stroke-width:1.0;fill:none;" x1="149.5662" x2="140.3628" y1="83.4144" y2="87.3257"/><line style="stroke:#A80036;stroke-width:1.0;fill:none;" x1="149.5662" x2="143.2344" y1="83.4144" y2="75.6743"/><line style="stroke:#A80036;stroke-width:1.0;fill:none;" x1="149.5662" x2="141.7986" y1="83.4144" y2="81.5"/><ellipse cx="155.3919" cy="84.8502" rx="4" ry="4" style="stroke:#A80036;stroke-width:1.0;fill:none;"/><!--MD5=[741e743dc7d119eb774e69cf6e5f2530]
link Task to Status--><path codeLine="27" d="M149.7806,119.176 C180.9706,124.586 197.1976,161.485 205.4956,193.774 " fill="none" id="Task-Status" style="stroke:#A80036;stroke-width:1.0;"/><line style="stroke:#A80036;stroke-width:1.0;" x1="210.3939" x2="202.6155" y1="197.037" y2="198.907"/><line style="stroke:#A80036;stroke-width:1.0;" x1="209.6926" x2="201.9142" y1="194.1201" y2="195.9901"/><line style="stroke:#A80036;stroke-width:1.0;" x1="205.5697" x2="207.4396" y1="194.0828" y2="201.8612"/><line style="stroke:#A80036;stroke-width:1.0;" x1="149.7701" x2="141.2919" y1="119.1757" y2="124.4786"/><line style="stroke:#A80036;stroke-width:1.0;" x1="149.7701" x2="142.3054" y1="119.1757" y2="112.5214"/><line style="stroke:#A80036;stroke-width:1.0;" x1="149.7701" x2="141.7986" y1="119.1757" y2="118.5"/><ellipse cx="155.7486" cy="119.6825" rx="4" ry="4" style="stroke:#A80036;stroke-width:1.0;fill:none;"/><!--MD5=[fe9e031cf016d82412984ba0d01e2328]
@startuml
entity User {
    username: text
    - -
    * name: text
    * surname: text
    * email: string
}

entity Task {
    id: UUID (generated)
    - -
    *author: User
    assignee: User
    *title: text
    description: text
    *status: Status
}

enum Status {
    TODO
    IN_PROCESS
    DONE
}

Task::author }o..|| User::username
Task::assignee }o..o| User::username
Task::status }o- -|| Status
@enduml

PlantUML version 1.2021.10(Mon Aug 30 13:43:48 UTC 2021)
(GPL source distribution)
Java Runtime: Java(TM) SE Runtime Environment
JVM: Java HotSpot(TM) 64-Bit Server VM
Default Encoding: UTF-8
Language: en
Country: US
--></g></svg>